<?xml version="1.0" encoding="UTF-8"?><svg xmlns="http://www.w3.org/2000/svg" viewBox="0 0 139.43 139.43"><defs><style>.d{stroke-linecap:round;}.d,.e{fill:none;stroke:#1d1d1b;stroke-miterlimit:10;stroke-width:2.83px;}</style></defs><g id="a"/><g id="b"><g id="c"><g><rect class="e" x="20.25" y="20.25" width="98.93" height="98.93" rx="4" ry="4" transform="translate(168.3 69.71) rotate(135)"/><path class="d" d="M61.23,55.15c-1.71-16.63,19.27-25.37,33.4-15.31-8.03,16.59-18.5,17.08-33.4,15.31Z"/><path class="d" d="M80.83,41.88c-15.92,4.3-29.75,16.31-20.59,45.74"/><path class="d" d="M51.17,81.92c-3.75,.43-5.78,3-5.78,9.37,0,7.18,6.85,13.01,14.03,13.01s13.01-5.82,13.01-13.01-5.73-14.95-14.03-10.77"/><path class="e" d="M71.62,86.56c.26,.02,.53,.03,.8,.03,5.67,0,10.26-4.6,10.26-10.26s-4.6-10.26-10.26-10.26c-3.39,0-6.39,1.64-8.26,4.17"/><path class="d" d="M61.23,55.15s-3.48,11.88,8.48,20.77"/></g></g></g></svg>