<?xml version="1.0" standalone="no"?>
<!DOCTYPE svg PUBLIC "-//W3C//DTD SVG 20010904//EN"
 "http://www.w3.org/TR/2001/REC-SVG-20010904/DTD/svg10.dtd">
<svg version="1.0" xmlns="http://www.w3.org/2000/svg"
 width="768.000000pt" height="768.000000pt" viewBox="0 0 768.000000 768.000000"
 preserveAspectRatio="xMidYMid meet">

<g transform="translate(0.000000,768.000000) scale(0.100000,-0.100000)"
fill="#000000" stroke="none">
<path d="M524 7650 c-241 -63 -433 -255 -494 -496 -20 -76 -20 -125 -20 -3314
0 -3189 0 -3238 20 -3314 61 -240 256 -435 496 -496 76 -20 117 -20 3313 -20
3609 0 3291 -6 3451 72 69 34 102 59 175 133 74 73 99 106 133 176 78 158 72
-144 72 3454 0 3595 6 3286 -70 3441 -90 182 -253 315 -446 364 -76 20 -124
20 -3318 19 -3132 0 -3243 -1 -3312 -19z m3171 -1965 l0 -1700 -1700 0 -1700
0 -3 1495 c-2 1048 1 1514 8 1559 29 171 166 313 327 341 26 4 728 7 1558 6
l1510 -1 0 -1700z m2236 1215 c371 -76 677 -307 849 -642 377 -731 -51 -1614
-859 -1775 -125 -25 -356 -23 -481 4 -248 54 -454 167 -629 345 -94 96 -149
172 -210 288 -97 185 -141 365 -141 574 0 256 69 481 213 696 63 94 230 260
323 322 140 93 334 171 489 197 102 17 340 12 446 -9z m1457 -4695 c1 -915 -1
-1514 -7 -1553 -25 -163 -127 -285 -281 -338 -53 -18 -110 -19 -1585 -19
l-1530 0 -3 1690 c-1 930 0 1696 3 1703 3 10 349 12 1702 10 l1698 -3 3 -1490z
m-5100 990 c237 -61 436 -176 595 -344 225 -239 340 -527 340 -851 0 -213 -39
-373 -136 -564 -299 -587 -1014 -831 -1613 -551 -329 153 -578 452 -669 800
-76 292 -47 581 85 851 185 379 526 625 955 688 17 2 100 3 185 1 128 -3 173
-8 258 -30z"/>
<path d="M1805 6909 c-234 -34 -480 -157 -663 -333 -107 -103 -168 -184 -236
-316 -81 -159 -121 -293 -135 -462 -50 -596 331 -1138 908 -1292 508 -136
1045 67 1338 507 77 115 135 244 170 377 34 130 43 382 19 514 -98 519 -491
912 -1001 1000 -97 17 -299 19 -400 5z m383 -295 c185 -38 352 -134 493 -282
434 -457 296 -1202 -274 -1482 -270 -132 -563 -132 -830 1 -363 180 -574 581
-514 974 61 397 350 707 737 789 91 20 293 20 388 0z"/>
<path d="M5495 6614 c-349 -78 -623 -340 -717 -686 -32 -118 -32 -355 0 -473
102 -373 420 -648 802 -695 180 -21 352 10 525 95 513 253 680 896 357 1373
-117 172 -315 312 -527 373 -96 28 -340 35 -440 13z"/>
<path d="M5565 3223 c-226 -27 -437 -109 -605 -233 -239 -178 -406 -433 -471
-720 -29 -124 -35 -339 -15 -465 110 -667 732 -1121 1399 -1020 111 17 273 68
369 116 236 119 455 346 563 583 77 170 109 318 109 516 0 209 -39 378 -129
554 -181 355 -523 603 -915 662 -87 13 -231 16 -305 7z m360 -312 c89 -23 220
-83 293 -132 68 -47 187 -164 238 -236 57 -78 119 -210 146 -310 31 -112 31
-354 0 -466 -90 -328 -329 -573 -658 -673 -81 -25 -104 -28 -249 -28 -135 -1
-172 2 -241 21 -332 91 -580 336 -676 668 -20 69 -23 103 -23 240 0 135 4 173
23 245 65 241 237 463 455 584 69 39 216 91 298 105 89 16 302 6 394 -18z"/>
<path d="M1829 2924 c-624 -113 -959 -801 -664 -1361 157 -298 444 -482 780
-500 134 -7 227 6 358 51 312 107 542 370 613 701 30 142 16 351 -34 495 -150
432 -603 696 -1053 614z"/>
</g>
</svg>
